# xmcd
#
# Track frame offsets: 
#        150
#        18322
#        42063
#        58135
#        84039
#        113214
#        132439
#        151498
#        167129
#
# Disc length: 2444 seconds
#
# Revision: 0
# Processed by: cddbd v1.5.2PL0 Copyright (c) Steve Scherf et al.
# Submitted via: ExactAudioCopy v0.95b4
#
DISCID=6a098a09
DTITLE=Climax Blues Band - Shine On
DYEAR=1978
DGENRE=Blues
TTITLE0=Makin' Love
TTITLE1=Mistress Moonshine
TTITLE2=When Talking Is Too Much Trouble
TTITLE3=The Gospel Singer
TTITLE4=Whatcha Feel
TTITLE5=Teardrops
TTITLE6=Like A Movie
TTITLE7=Champagne And Rock'n Roll
TTITLE8=Makin' Love (Edit)
EXTD=
EXTT0=
EXTT1=
EXTT2=
EXTT3=
EXTT4=
EXTT5=
EXTT6=
EXTT7=
EXTT8=
PLAYORDER=
